<?xml version="1.0" encoding="UTF-8"?>
<svg width="55px" height="55px" viewBox="0 0 55 55" version="1.1" xmlns="http://www.w3.org/2000/svg" xmlns:xlink="http://www.w3.org/1999/xlink">
    <!-- Generator: sketchtool 50.2 (55047) - http://www.bohemiancoding.com/sketch -->
    <title>0F1B2749-64B5-44DA-9375-B7D02BF71295</title>
    <desc>Created with sketchtool.</desc>
    <defs></defs>
    <g id="Page-1" stroke="none" stroke-width="1" fill="none" fill-rule="evenodd" opacity="0.197823661">
        <g id="Homepage" transform="translate(-1785.000000, -513.000000)">
            <g id="Header">
                <g id="arrows" transform="translate(80.000000, 513.000000)">
                    <g id="right" transform="translate(1705.000000, 0.000000)">
                        <rect id="Rectangle" fill="#566876" x="0" y="0" width="55" height="55"></rect>
                        <g id="arrow-point-to-right" transform="translate(23.000000, 20.000000)" fill="#FFFFFF" fill-rule="nonzero">
                            <g id="arrow">
                                <path d="M8.99424377,8.78909735 L1.96052293,15.6663009 C1.51309332,16.104 0.787662912,16.104 0.340450523,15.6663009 C-0.106798069,15.2289912 -0.106798069,14.5197168 0.340450523,14.0824425 L6.56420756,7.99716814 L0.340631537,1.91210619 C-0.106617056,1.47461947 -0.106617056,0.765415929 0.340631537,0.328106195 C0.787880129,-0.109380531 1.51327434,-0.109380531 1.96070394,0.328106195 L8.99442478,7.20541593 C9.21804907,7.42417699 9.32973451,7.71058407 9.32973451,7.99713274 C9.32973451,8.28382301 9.21783186,8.57044248 8.99424377,8.78909735 Z" id="Shape"></path>
                            </g>
                        </g>
                    </g>
                </g>
            </g>
        </g>
    </g>
</svg>