<?xml version="1.0" encoding="UTF-8"?>
<svg width="18px" height="18px" viewBox="0 0 18 18" version="1.1" xmlns="http://www.w3.org/2000/svg" xmlns:xlink="http://www.w3.org/1999/xlink">
    <!-- Generator: sketchtool 50.2 (55047) - http://www.bohemiancoding.com/sketch -->
    <title>D315EECF-3DA6-4673-9AC9-175E8A30A0B1</title>
    <desc>Created with sketchtool.</desc>
    <defs></defs>
    <g id="Page-1" stroke="none" stroke-width="1" fill="none" fill-rule="evenodd">
        <g id="Cart-Page" transform="translate(-1742.000000, -508.000000)" fill="#566876" fill-rule="nonzero">
            <g id="Content">
                <g id="cart" transform="translate(80.000000, 341.000000)">
                    <g id="1" transform="translate(40.000000, 122.000000)">
                        <g id="cancel-(2)" transform="translate(1622.000000, 45.000000)">
                            <path d="M10.9824878,9 L17.712439,2.2697561 C17.897561,2.0844878 17.9997073,1.83731707 18,1.5737561 C18,1.31004878 17.8978537,1.06258537 17.712439,0.877609756 L17.1226829,0.288 C16.9372683,0.102292683 16.6900976,0.000585365854 16.4262439,0.000585365854 C16.1628293,0.000585365854 15.9156585,0.102292683 15.7302439,0.288 L9.00029268,7.01780488 L2.27004878,0.288 C2.08492683,0.102292683 1.83760976,0.000585365854 1.57390244,0.000585365854 C1.3104878,0.000585365854 1.06317073,0.102292683 0.87804878,0.288 L0.288,0.877609756 C-0.096,1.26160976 -0.096,1.88619512 0.288,2.2697561 L7.01809756,9 L0.288,15.7299512 C0.102731707,15.9155122 0.000731707317,16.1626829 0.000731707317,16.4262439 C0.000731707317,16.6898049 0.102731707,16.9369756 0.288,17.1223902 L0.877902439,17.712 C1.06302439,17.897561 1.3104878,17.9994146 1.5737561,17.9994146 C1.83746341,17.9994146 2.08478049,17.897561 2.26990244,17.712 L9.00014634,10.9820488 L15.7300976,17.712 C15.9155122,17.897561 16.1626829,17.9994146 16.4260976,17.9994146 L16.4263902,17.9994146 C16.6899512,17.9994146 16.937122,17.897561 17.1225366,17.712 L17.7122927,17.1223902 C17.8974146,16.937122 17.999561,16.6898049 17.999561,16.4262439 C17.999561,16.1626829 17.8974146,15.9155122 17.7122927,15.7300976 L10.9824878,9 Z" id="Shape"></path>
                        </g>
                    </g>
                </g>
            </g>
        </g>
    </g>
</svg>