<?xml version="1.0" encoding="UTF-8"?>
<svg width="16px" height="14px" viewBox="0 0 16 14" version="1.1" xmlns="http://www.w3.org/2000/svg" xmlns:xlink="http://www.w3.org/1999/xlink">
    <!-- Generator: sketchtool 50.2 (55047) - http://www.bohemiancoding.com/sketch -->
    <title>6CC05CAA-B46B-4888-9A4C-6D886DE41EDA</title>
    <desc>Created with sketchtool.</desc>
    <defs></defs>
    <g id="Page-1" stroke="none" stroke-width="1" fill="none" fill-rule="evenodd" opacity="0.7">
        <g id="My-Wallet" transform="translate(-230.000000, -454.000000)" fill="#566876" fill-rule="nonzero">
            <g id="Content">
                <g id="Tabs" transform="translate(80.000000, 189.000000)">
                    <g id="Change-photo" transform="translate(150.000000, 265.000000)">
                        <g id="photo-camera">
                            <path d="M13.8459845,2.69476615 L12.167938,2.68594209 L10.560186,0.274138085 C10.4635349,0.123942094 10.2966202,0.0267839644 10.1208992,0.0267839644 L5.78967442,0.0267839644 C5.61395349,0.0267839644 5.45581395,0.123973274 5.3591938,0.265314031 L3.69872868,2.68594209 L2.14368992,2.69476615 C0.966418605,2.69476615 0,3.6665657 0,4.8503608 L0,11.8207394 C0,13.0045657 0.966418605,13.9940134 2.14365891,13.9940134 L13.8459845,13.9940134 C15.0232558,13.9940134 15.9896434,13.0045657 15.9896434,11.8207394 L15.9896434,4.8503608 C15.9896744,3.6665657 15.0232558,2.69476615 13.8459845,2.69476615 Z M14.9354109,11.8207394 C14.9354109,12.4214922 14.4434109,12.9338797 13.8460155,12.9338797 L2.14368992,12.9338797 C1.54626357,12.9338797 1.05429457,12.4214922 1.05429457,11.8207394 L1.05429457,4.8503608 C1.05429457,4.24960802 1.54629457,3.75489978 2.14368992,3.75489978 L3.97987597,3.75489978 C4.1555969,3.75489978 4.31373643,3.65771047 4.41035659,3.51636971 L6.07082171,1.09574165 L9.83981395,1.09574165 L11.4387907,3.4987216 C11.5354419,3.64006236 11.7023566,3.73725167 11.8692713,3.73725167 L13.8372403,3.75493096 C14.4346667,3.75493096 14.9266357,4.24967038 14.9266357,4.85039198 L14.9266357,11.8207706 L14.9354109,11.8207706 L14.9354109,11.8207394 Z" id="Shape"></path>
                            <path d="M8.03875969,3.9669265 C5.97417054,3.9669265 4.30489922,5.65431626 4.30489922,7.72157684 C4.30489922,9.78883742 5.98294574,11.476196 8.03875969,11.476196 C10.0945736,11.476196 11.7726202,9.78880624 11.7726202,7.72154566 C11.7726202,5.65428508 10.0945736,3.9669265 8.03875969,3.9669265 Z M8.03875969,10.4160624 C6.5627907,10.4160624 5.35916279,9.20573274 5.35916279,7.72154566 C5.35916279,6.23735857 6.5627907,5.02702895 8.03875969,5.02702895 C9.51472868,5.02702895 10.7183566,6.23735857 10.7183566,7.72154566 C10.7183566,9.20573274 9.51472868,10.4160624 8.03875969,10.4160624 Z" id="Shape"></path>
                            <circle id="Oval" cx="13.0856589" cy="5.56859688" r="1"></circle>
                            <path d="M13.0377364,4.78853007 C12.6336124,4.78853007 12.3085271,5.11539421 12.3085271,5.52179955 C12.3085271,5.9282049 12.6335814,6.25506904 13.0377364,6.25506904 C13.4418915,6.25506904 13.7669457,5.9282049 13.7669457,5.52179955 C13.7669457,5.11539421 13.4418605,4.78853007 13.0377364,4.78853007 Z M13.0377364,5.8486637 C12.8532403,5.8486637 12.7126822,5.69846771 12.7126822,5.52179955 C12.7126822,5.3451314 12.8620465,5.19493541 13.0377364,5.19493541 C13.2134574,5.19493541 13.3627907,5.3451314 13.3627907,5.52179955 C13.3627907,5.69846771 13.2222326,5.8486637 13.0377364,5.8486637 Z" id="Shape"></path>
                        </g>
                    </g>
                </g>
            </g>
        </g>
    </g>
</svg>