<?xml version="1.0" encoding="UTF-8"?>
<svg width="15px" height="15px" viewBox="0 0 15 15" version="1.1" xmlns="http://www.w3.org/2000/svg" xmlns:xlink="http://www.w3.org/1999/xlink">
    <!-- Generator: sketchtool 50.2 (55047) - http://www.bohemiancoding.com/sketch -->
    <title>FE5AEE56-53B3-40AF-8216-7CD0350CC9AD</title>
    <desc>Created with sketchtool.</desc>
    <defs></defs>
    <g id="Page-1" stroke="none" stroke-width="1" fill="none" fill-rule="evenodd">
        <g id="Registration-Page-2" transform="translate(-1014.000000, -793.000000)" fill="#566876" fill-rule="nonzero">
            <g id="Group" transform="translate(538.000000, 190.000000)">
                <g id="Group-5" transform="translate(146.000000, 34.000000)">
                    <g id="Group-3" transform="translate(330.000000, 566.000000)">
                        <g id="Group-6" transform="translate(0.000000, 3.000000)">
                            <g id="blank-square">
                                <path d="M13.125,0 L1.875,0 C0.84375,0 0,0.84375 0,1.875 L0,13.125 C0,14.15625 0.84375,15 1.875,15 L13.125,15 C14.15625,15 15,14.15625 15,13.125 L15,1.875 C15,0.84375 14.15625,0 13.125,0 Z M13.125,13.125 L1.875,13.125 L1.875,1.875 L13.125,1.875 L13.125,13.125 Z" id="Shape"></path>
                            </g>
                            <g id="big-check-mark" transform="translate(4.000000, 4.000000)">
                                <path d="M7.85201667,0.993433333 L7.00605,0.14775 C6.82868333,-0.02965 6.54136667,-0.02965 6.36401667,0.14775 L3.00243333,3.50956667 L1.62171667,2.12883333 C1.44431667,1.95145 1.15675,1.9512 0.979416667,2.12855 L0.133166667,2.97506667 C-0.0442166667,3.15243333 -0.0444666667,3.44 0.1329,3.61738333 L2.469,5.95376667 C2.75711667,6.24183333 3.22416667,6.24265 3.51331667,5.9556 C4.58153333,4.89481667 6.98188333,2.50296667 7.8515,1.63651667 C7.93698333,1.55133333 7.98506667,1.4358 7.98506667,1.31526667 C7.98533333,1.19446667 7.93725,1.07893333 7.85201667,0.993433333 Z" id="Shape"></path>
                            </g>
                        </g>
                    </g>
                </g>
            </g>
        </g>
    </g>
</svg>