<?xml version="1.0" encoding="UTF-8"?>
<svg width="18px" height="18px" viewBox="0 0 18 18" version="1.1" xmlns="http://www.w3.org/2000/svg" xmlns:xlink="http://www.w3.org/1999/xlink">
    <!-- Generator: sketchtool 50.2 (55047) - http://www.bohemiancoding.com/sketch -->
    <title>46BAE3A2-81E0-4FC7-A0AA-0A29D5A35CDB</title>
    <desc>Created with sketchtool.</desc>
    <defs></defs>
    <g id="Page-1" stroke="none" stroke-width="1" fill="none" fill-rule="evenodd" opacity="0.7">
        <g id="Homepage" transform="translate(-830.000000, -5006.000000)" fill="#566876" fill-rule="nonzero">
            <g id="Footer" transform="translate(0.000000, 4654.000000)">
                <g id="Social" transform="translate(830.000000, 352.000000)">
                    <g id="facebook-logo-button">
                        <path d="M8.93736,0 C4.00932,0 0,4.00932 0,8.93736 C0,13.86504 4.00932,17.87472 8.93736,17.87472 C13.86504,17.87472 17.87472,13.86504 17.87472,8.93736 C17.87472,4.00932 13.86576,0 8.93736,0 Z M11.16,9.252 L9.70596,9.252 C9.70596,11.57508 9.70596,14.43456 9.70596,14.43456 L7.55136,14.43456 C7.55136,14.43456 7.55136,11.6028 7.55136,9.252 L6.52716,9.252 L6.52716,7.42032 L7.55136,7.42032 L7.55136,6.23556 C7.55136,5.38704 7.95456,4.06116 9.72576,4.06116 L11.32236,4.06728 L11.32236,5.84532 C11.32236,5.84532 10.35216,5.84532 10.16352,5.84532 C9.97488,5.84532 9.70668,5.93964 9.70668,6.34428 L9.70668,7.42068 L11.34828,7.42068 L11.16,9.252 Z" id="Shape"></path>
                    </g>
                </g>
            </g>
        </g>
    </g>
</svg>