<?xml version="1.0" encoding="UTF-8"?>
<svg width="18px" height="18px" viewBox="0 0 18 18" version="1.1" xmlns="http://www.w3.org/2000/svg" xmlns:xlink="http://www.w3.org/1999/xlink">
    <!-- Generator: sketchtool 50.2 (55047) - http://www.bohemiancoding.com/sketch -->
    <title>9D6996C2-2C52-4F39-A566-0333870DEC27</title>
    <desc>Created with sketchtool.</desc>
    <defs></defs>
    <g id="Page-1" stroke="none" stroke-width="1" fill="none" fill-rule="evenodd" opacity="0.7">
        <g id="Homepage" transform="translate(-951.000000, -5006.000000)" fill="#566876" fill-rule="nonzero">
            <g id="Footer" transform="translate(0.000000, 4654.000000)">
                <g id="Social" transform="translate(830.000000, 352.000000)">
                    <g id="google-plus-logo-button" transform="translate(121.000000, 0.000000)">
                        <path d="M7.74,10.4184 C7.68204,10.37988 7.62264,10.33812 7.56036,10.296 C7.37928,10.24056 7.18704,10.21176 6.99012,10.20924 L6.96636,10.20924 C6.06132,10.20924 5.26788,10.7568 5.26788,11.38176 C5.26788,12.06216 5.94792,12.59388 6.81552,12.59388 C7.95996,12.59388 8.53992,12.1986 8.53992,11.421 C8.53992,11.34756 8.53128,11.27124 8.51292,11.19456 C8.43552,10.89288 8.15868,10.7046 7.74,10.4184 Z" id="Shape"></path>
                        <path d="M7.09884,8.04672 C7.09956,8.04672 7.09956,8.04672 7.09956,8.04672 C7.31592,8.04672 7.49844,7.9614 7.63992,7.7994 C7.86168,7.54668 7.95996,7.13196 7.90164,6.69168 C7.79904,5.90472 7.23636,5.24952 6.6492,5.2326 L6.6258,5.23188 C6.41808,5.23188 6.23268,5.31756 6.09192,5.47884 C5.8734,5.72832 5.78088,6.1236 5.83812,6.56316 C5.94108,7.3494 6.51564,8.02872 7.09056,8.04672 L7.09884,8.04672 Z" id="Shape"></path>
                        <path d="M8.93736,0 C4.00932,0 0,4.00932 0,8.93736 C0,13.86504 4.00932,17.87472 8.93736,17.87472 C13.86504,17.87472 17.87472,13.86504 17.87472,8.93736 C17.87472,4.00932 13.86576,0 8.93736,0 Z M7.90704,13.2894 C7.56936,13.38696 7.20396,13.43628 6.82056,13.43628 C6.3936,13.43628 5.9832,13.38732 5.60052,13.29048 C4.86,13.10364 4.3128,12.7494 4.0572,12.29292 C3.94704,12.09564 3.89124,11.8854 3.89124,11.6676 C3.89124,11.44332 3.94488,11.2158 4.05072,10.99044 C4.45644,10.12572 5.526,9.54396 6.71076,9.54396 C6.72264,9.54396 6.7338,9.54396 6.7446,9.54396 C6.64848,9.3744 6.60204,9.19872 6.60204,9.01404 C6.60204,8.92224 6.61428,8.82864 6.63876,8.73324 C5.39604,8.70516 4.46616,7.79508 4.46616,6.5952 C4.46616,5.74812 5.14332,4.92264 6.11172,4.58928 C6.40152,4.4892 6.69708,4.43808 6.9876,4.43808 L9.64512,4.43808 C9.73548,4.43808 9.81576,4.49676 9.84384,4.5828 C9.87192,4.66848 9.84096,4.7628 9.76788,4.81572 L9.17352,5.24592 C9.13788,5.27112 9.09504,5.2848 9.05076,5.2848 L8.838,5.2848 C9.11268,5.6142 9.2736,6.084 9.2736,6.6114 C9.2736,7.19352 8.97912,7.74396 8.44308,8.16336 C8.02908,8.48592 8.01288,8.57484 8.01288,8.7588 C8.01792,8.85996 8.30628,9.19008 8.62452,9.41508 C9.36576,9.93924 9.64152,10.45368 9.64152,11.31192 C9.64116,12.20868 8.9604,12.9834 7.90704,13.2894 Z M13.9086,8.73108 C13.9086,8.84628 13.81464,8.93988 13.6998,8.93988 L12.1896,8.93988 L12.1896,10.4508 C12.1896,10.566 12.09564,10.6596 11.98152,10.6596 L11.55132,10.6596 C11.4354,10.6596 11.3418,10.566 11.3418,10.4508 L11.3418,8.93988 L9.83268,8.93988 C9.71748,8.93988 9.62388,8.847 9.62388,8.73108 L9.62388,8.3016 C9.62388,8.1864 9.71748,8.09208 9.83268,8.09208 L11.3418,8.09208 L11.3418,6.5826 C11.3418,6.46704 11.4354,6.3738 11.55132,6.3738 L11.98152,6.3738 C12.09564,6.3738 12.1896,6.46704 12.1896,6.5826 L12.1896,8.09208 L13.69944,8.09208 C13.81428,8.09208 13.90824,8.18568 13.90824,8.30088 L13.90824,8.73108 L13.9086,8.73108 Z" id="Shape"></path>
                    </g>
                </g>
            </g>
        </g>
    </g>
</svg>