<?xml version="1.0" encoding="UTF-8"?>
<svg width="18px" height="18px" viewBox="0 0 18 18" version="1.1" xmlns="http://www.w3.org/2000/svg" xmlns:xlink="http://www.w3.org/1999/xlink">
    <!-- Generator: sketchtool 50.2 (55047) - http://www.bohemiancoding.com/sketch -->
    <title>922B026B-A6F8-4503-874A-235E6FD61E3C</title>
    <desc>Created with sketchtool.</desc>
    <defs></defs>
    <g id="Page-1" stroke="none" stroke-width="1" fill="none" fill-rule="evenodd" opacity="0.7">
        <g id="Homepage" transform="translate(-1012.000000, -5006.000000)" fill="#566876" fill-rule="nonzero">
            <g id="Footer" transform="translate(0.000000, 4654.000000)">
                <g id="Social" transform="translate(830.000000, 352.000000)">
                    <g id="instagram-logo" transform="translate(182.000000, 0.000000)">
                        <path d="M8.937,10.72656 C9.92304,10.72656 10.72692,9.92412 10.72692,8.93736 C10.72692,8.54784 10.59948,8.1882 10.38852,7.89444 C10.06344,7.44372 9.53496,7.14816 8.93808,7.14816 C8.34084,7.14816 7.81272,7.44336 7.48692,7.89408 C7.27524,8.18784 7.14888,8.54748 7.14852,8.937 C7.14744,9.92376 7.9506,10.72656 8.937,10.72656 Z" id="Shape"></path>
                        <polygon id="Shape" points="12.84408 6.74856 12.84408 5.2488 12.84408 5.0256 12.6198 5.02632 11.12076 5.031 11.12652 6.75432"></polygon>
                        <path d="M8.93736,0 C4.00932,0 0,4.00932 0,8.93736 C0,13.86504 4.00932,17.87472 8.93736,17.87472 C13.86504,17.87472 17.87472,13.86504 17.87472,8.93736 C17.87472,4.00932 13.86576,0 8.93736,0 Z M14.0202,7.89444 L14.0202,12.05604 C14.0202,13.14 13.13892,14.02092 12.05568,14.02092 L5.81904,14.02092 C4.73544,14.02092 3.85452,13.14 3.85452,12.05604 L3.85452,7.89444 L3.85452,5.8194 C3.85452,4.7358 4.73544,3.85488 5.81904,3.85488 L12.05532,3.85488 C13.13892,3.85488 14.0202,4.7358 14.0202,5.8194 L14.0202,7.89444 Z" id="Shape"></path>
                        <path d="M11.71764,8.93736 C11.71764,10.46988 10.4706,11.71764 8.93736,11.71764 C7.40412,11.71764 6.15744,10.46988 6.15744,8.93736 C6.15744,8.56872 6.23088,8.21628 6.36192,7.89444 L4.84452,7.89444 L4.84452,12.05604 C4.84452,12.59388 5.2812,13.02948 5.81868,13.02948 L12.05496,13.02948 C12.59172,13.02948 13.02912,12.59388 13.02912,12.05604 L13.02912,7.89444 L11.511,7.89444 C11.64312,8.21628 11.71764,8.56872 11.71764,8.93736 Z" id="Shape"></path>
                    </g>
                </g>
            </g>
        </g>
    </g>
</svg>