<?xml version="1.0" encoding="UTF-8"?>
<svg width="18px" height="18px" viewBox="0 0 18 18" version="1.1" xmlns="http://www.w3.org/2000/svg" xmlns:xlink="http://www.w3.org/1999/xlink">
    <!-- Generator: sketchtool 50.2 (55047) - http://www.bohemiancoding.com/sketch -->
    <title>437DB496-24DB-480C-89DF-0505379F5BD8</title>
    <desc>Created with sketchtool.</desc>
    <defs></defs>
    <g id="Page-1" stroke="none" stroke-width="1" fill="none" fill-rule="evenodd" opacity="0.7">
        <g id="Homepage" transform="translate(-1072.000000, -5006.000000)" fill="#566876" fill-rule="nonzero">
            <g id="Footer" transform="translate(0.000000, 4654.000000)">
                <g id="Social" transform="translate(830.000000, 352.000000)">
                    <g id="linkedin-button" transform="translate(242.000000, 0.000000)">
                        <path d="M8.98876386,0 C4.02471869,0 0,4.02471869 0,8.98876386 C0,13.952809 4.02471869,17.9775277 8.98876386,17.9775277 C13.952809,17.9775277 17.9775277,13.952809 17.9775277,8.98876386 C17.9775277,4.02360986 13.952809,0 8.98876386,0 Z M6.7415729,13.342694 L4.49438193,13.342694 L4.49438193,5.47750719 L6.7415729,5.47750719 L6.7415729,13.342694 Z M5.68763039,4.99549897 C5.10560575,4.99549897 4.63483368,4.52358111 4.63483368,3.94155647 C4.63483368,3.35953183 5.10675154,2.88761396 5.68763039,2.88761396 C6.26965503,2.88872279 6.7415729,3.36064066 6.7415729,3.94155647 C6.7415729,4.52358111 6.26965503,4.99549897 5.68763039,4.99549897 Z M14.6067228,13.342694 L12.3595318,13.342694 L12.3595318,8.47977413 C12.3595318,7.91009446 12.1966078,7.51124846 11.4966037,7.51124846 C10.3359179,7.51124846 10.1123409,8.47977413 10.1123409,8.47977413 L10.1123409,13.342694 L7.8651499,13.342694 L7.8651499,5.47750719 L10.1123409,5.47750719 L10.1123409,6.22918275 C10.4336797,5.98313347 11.2359179,5.47861602 12.3595318,5.47861602 C13.0876263,5.47861602 14.6067228,5.91457084 14.6067228,8.54826283 L14.6067228,13.342694 Z" id="Shape"></path>
                    </g>
                </g>
            </g>
        </g>
    </g>
</svg>