<?xml version="1.0" encoding="UTF-8"?>
<svg width="11px" height="14px" viewBox="0 0 11 14" version="1.1" xmlns="http://www.w3.org/2000/svg" xmlns:xlink="http://www.w3.org/1999/xlink">
    <!-- Generator: sketchtool 50.2 (55047) - http://www.bohemiancoding.com/sketch -->
    <title>BD2967B2-D5EF-45E1-8649-72E9E2940964</title>
    <desc>Created with sketchtool.</desc>
    <defs></defs>
    <g id="Page-1" stroke="none" stroke-width="1" fill="none" fill-rule="evenodd" opacity="0.7">
        <g id="Homepage" transform="translate(-693.000000, -3461.000000)" fill="#566876" fill-rule="nonzero">
            <g id="Latest-Winners" transform="translate(0.000000, 2727.000000)">
                <g id="2" transform="translate(530.000000, 301.000000)">
                    <g id="Location:" transform="translate(163.000000, 431.000000)">
                        <g id="map-pin-silhouette" transform="translate(0.898148, 2.000000)">
                            <g id="icon">
                                <path d="M4.99461988,0 C2.24266082,0 0.0115789474,2.19802881 0.0115789474,4.9091893 C0.0115789474,5.11674074 0.0284795322,5.31902058 0.0542397661,5.51954321 C0.48002924,9.35427572 4.67105263,13.7739547 4.67105263,13.7739547 C4.74573099,13.856284 4.8177193,13.90707 4.88704678,13.9438272 L4.89061404,13.9455844 L5.03017544,13.9893704 L5.16973684,13.9455844 L5.17330409,13.9438272 C5.24263158,13.9070412 5.31464912,13.8536337 5.38929825,13.7739547 C5.38929825,13.7739547 9.51988304,9.34638272 9.93587719,5.51081481 C9.96076023,5.31291358 9.97766082,5.11236214 9.97766082,4.9083251 C9.97675439,2.19802881 7.74657895,0 4.99461988,0 Z M4.99461988,8.06699588 C3.22754386,8.06699588 1.78935673,6.65011523 1.78935673,4.90921811 C1.78935673,3.16832099 3.22754386,1.75144033 4.99461988,1.75144033 C6.76169591,1.75144033 8.19900585,3.16832099 8.19900585,4.90921811 C8.19900585,6.65011523 6.76169591,8.06699588 4.99461988,8.06699588 Z" id="Shape"></path>
                            </g>
                        </g>
                    </g>
                </g>
            </g>
        </g>
    </g>
</svg>