<?xml version="1.0" encoding="UTF-8"?>
<svg width="20px" height="17px" viewBox="0 0 20 17" version="1.1" xmlns="http://www.w3.org/2000/svg" xmlns:xlink="http://www.w3.org/1999/xlink">
    <!-- Generator: sketchtool 50.2 (55047) - http://www.bohemiancoding.com/sketch -->
    <title>3D84E2B5-066D-47E2-9266-A94906DBC6A8</title>
    <desc>Created with sketchtool.</desc>
    <defs>
        <linearGradient x1="96.5429553%" y1="3.45704466%" x2="5.56256996%" y2="94.43743%" id="linearGradient-1">
            <stop stop-color="#E3A720" offset="0%"></stop>
            <stop stop-color="#FFE774" offset="53.1453215%"></stop>
            <stop stop-color="#E3A720" offset="100%"></stop>
        </linearGradient>
    </defs>
    <g id="Page-1" stroke="none" stroke-width="1" fill="none" fill-rule="evenodd">
        <g id="Login-Page-2" transform="translate(-981.000000, -648.000000)" fill="#FFFFFF" fill-rule="nonzero">
            <g id="Group-2" transform="translate(685.000000, 224.000000)">
                <g id="btn" transform="translate(148.000000, 405.000000)">
                    <g id="txt" transform="translate(89.000000, 16.000000)">
                        <g id="Shopping" transform="translate(59.000000, 3.000000)">
                            <g id="login-(2)">
                                <path d="M10.5870441,10.5062599 C10.2209176,10.8479762 10.2209176,11.4019673 10.5870441,11.7436836 C10.7701074,11.9145418 11.0100459,12 11.2499219,12 C11.4898604,12 11.7297989,11.9146001 11.9127996,11.7436836 L14.7251864,9.11886133 C14.7470614,9.09838636 14.767874,9.07691971 14.7874991,9.05451974 C14.7960617,9.04477808 14.8034992,9.03445309 14.8115617,9.0244781 C14.8218743,9.01164478 14.8324993,8.99910313 14.8420618,8.98574481 C14.8508119,8.97355315 14.8583744,8.96089483 14.8663744,8.94841151 C14.874062,8.93639486 14.8821245,8.92466987 14.8892495,8.91230322 C14.8966246,8.8994699 14.9028121,8.88628658 14.9094371,8.87321992 C14.9159371,8.86044494 14.9227497,8.84784495 14.9285622,8.8347783 C14.9341872,8.82200331 14.9387497,8.80899499 14.9437498,8.796045 C14.9491873,8.78204502 14.9548748,8.76822003 14.9595623,8.75392838 C14.9637498,8.7409784 14.9668124,8.72785341 14.9703124,8.71472842 C14.9742499,8.70020344 14.9786249,8.68573679 14.9818124,8.67092013 C14.9849999,8.65581182 14.9869374,8.6405285 14.98925,8.62530352 C14.99125,8.6122952 14.9939375,8.59946188 14.9953125,8.58627856 C14.9983125,8.55804525 14.999875,8.52963695 14.9999375,8.50128698 C14.999875,8.47031201 14.9983125,8.44196204 14.9953125,8.4136704 C14.9939375,8.40066208 14.9913125,8.38800376 14.989375,8.37511211 C14.9869999,8.35971213 14.9850624,8.34431214 14.9818124,8.32902882 C14.9786874,8.31432884 14.9743749,8.30009552 14.9704374,8.2856872 C14.9668749,8.27244555 14.9637498,8.25908723 14.9594998,8.24596224 C14.9549373,8.23190393 14.9492498,8.21831227 14.9439373,8.20448729 C14.9388747,8.19130397 14.9342497,8.17806231 14.9284997,8.16511233 C14.9228122,8.15227901 14.9160622,8.13997069 14.9097496,8.12748737 C14.9029996,8.11412905 14.8966246,8.10065406 14.8891245,8.08752908 C14.8822495,8.07557075 14.874437,8.06419577 14.8669994,8.05258745 C14.8587494,8.03969579 14.8509994,8.02668747 14.8419993,8.01414582 C14.8328743,8.00137083 14.8226868,7.98941251 14.8128742,7.97710419 C14.8043742,7.96654587 14.7964992,7.95563755 14.7874366,7.94537089 C14.768749,7.92413758 14.7489365,7.90377927 14.7281864,7.88423762 C14.7275197,7.8836154 13.7890783,7.00762465 11.9128621,5.25626536 C11.5467356,4.91454905 10.9531706,4.91460738 10.5870441,5.25626536 C10.2209176,5.59798167 10.2209176,6.15197276 10.5870441,6.49368907 L11.7991742,7.62506289 L0.937503906,7.62506289 C0.419751749,7.62506289 0,8.01682915 0,8.50006198 C0,8.98329481 0.419751749,9.37506107 0.937503906,9.37506107 L11.7991117,9.37506107 L10.5870441,10.5062599 Z" id="XMLID_13_"></path>
                                <path d="M19.0454545,0 L6.95454545,0 C6.42738182,0 6,0.422859259 6,0.944444444 L6,4.72222222 C6,5.24380741 6.42738182,5.66666667 6.95454545,5.66666667 C7.48170909,5.66666667 7.90909091,5.24380741 7.90909091,4.72222222 L7.90909091,1.88888889 L18.0909091,1.88888889 L18.0909091,15.1111111 L7.90909091,15.1111111 L7.90909091,12.2777148 C7.90909091,11.7561296 7.48170909,11.3332704 6.95454545,11.3332704 C6.42738182,11.3332704 6,11.7561296 6,12.2777148 L6,16.0555556 C6,16.5771407 6.42738182,17 6.95454545,17 L19.0454545,17 C19.5726182,17 20,16.5771407 20,16.0555556 L20,0.944444444 C20,0.422796296 19.5726182,0 19.0454545,0 Z" id="XMLID_14_"></path>
                            </g>
                        </g>
                    </g>
                </g>
            </g>
        </g>
    </g>
</svg>