<?xml version="1.0" encoding="UTF-8"?>
<svg width="14px" height="14px" viewBox="0 0 14 14" version="1.1" xmlns="http://www.w3.org/2000/svg" xmlns:xlink="http://www.w3.org/1999/xlink">
    <!-- Generator: sketchtool 50.2 (55047) - http://www.bohemiancoding.com/sketch -->
    <title>15AF4E11-FE8E-4239-BD2D-FC044560CFD7</title>
    <desc>Created with sketchtool.</desc>
    <defs></defs>
    <g id="Page-1" stroke="none" stroke-width="1" fill="none" fill-rule="evenodd">
        <g id="My-Wallet" transform="translate(-242.000000, -830.000000)" fill="#566876" fill-rule="nonzero">
            <g id="Content">
                <g id="Tabs" transform="translate(80.000000, 189.000000)">
                    <g id="Log-Out" transform="translate(0.000000, 618.000000)">
                        <g id="txt-" transform="translate(162.000000, 19.000000)">
                            <g id="logout" transform="translate(0.000000, 4.000000)">
                                <path d="M9.04167578,10.5 L8.45835156,10.5 C8.29726953,10.5 8.16667578,10.6305938 8.16667578,10.7916758 L8.16667578,12.8333516 L1.16667578,12.8333516 L1.16667578,1.16667578 L8.16667578,1.16667578 L8.16667578,3.20835156 C8.16667578,3.36943359 8.29726953,3.50002734 8.45835156,3.50002734 L9.04167578,3.50002734 C9.20275781,3.50002734 9.33335156,3.36943359 9.33335156,3.20835156 L9.33335156,1.16667578 C9.33332422,0.522347656 8.81100391,0 8.16667578,0 L1.16667578,0 C0.522347656,0 0,0.522347656 0,1.16667578 L0,12.8333516 C0,13.4776797 0.522347656,14 1.16667578,14 L8.16667578,14 C8.81100391,14 9.33335156,13.4776797 9.33335156,12.8333242 L9.33335156,10.7916484 C9.33332422,10.6305938 9.20275781,10.5 9.04167578,10.5 Z" id="Shape"></path>
                                <path d="M13.9054453,6.78494141 L10.4054453,3.57661719 C10.3199961,3.49885156 10.1961016,3.47749609 10.0909922,3.52477344 C9.98503516,3.57120313 9.91667578,3.67601172 9.91667578,3.79164844 L9.91667578,4.375 C9.91667578,4.45760547 9.95170312,4.53649219 10.0132266,4.59175391 L12.040793,6.41667578 L3.79167578,6.41667578 C3.63045703,6.41667578 3.5,6.54713281 3.5,6.70835156 L3.5,7.29167578 C3.5,7.45289453 3.63045703,7.58335156 3.79167578,7.58335156 L12.040793,7.58335156 L10.0132266,9.40827344 C9.95170313,9.46353516 9.91667578,9.54242188 9.91667578,9.62502734 L9.91667578,10.2083516 C9.91667578,10.3239883 9.98503516,10.4288242 10.0909922,10.4752266 C10.1285898,10.492043 10.1687578,10.5 10.2083516,10.5 C10.2798555,10.5 10.3504844,10.4735039 10.4054453,10.4233828 L13.9054453,7.21505859 C13.9658203,7.15979688 14,7.08175781 14,7 C14,6.91824219 13.9658203,6.84020313 13.9054453,6.78494141 Z" id="Shape"></path>
                            </g>
                        </g>
                    </g>
                </g>
            </g>
        </g>
    </g>
</svg>