<?xml version="1.0" encoding="UTF-8"?>
<svg width="18px" height="12px" viewBox="0 0 18 12" version="1.1" xmlns="http://www.w3.org/2000/svg" xmlns:xlink="http://www.w3.org/1999/xlink">
    <!-- Generator: sketchtool 50.2 (55047) - http://www.bohemiancoding.com/sketch -->
    <title>3306D272-DA4D-42D7-89E2-DA706758804F</title>
    <desc>Created with sketchtool.</desc>
    <defs></defs>
    <g id="Page-1" stroke="none" stroke-width="1" fill="none" fill-rule="evenodd">
        <g id="Homepage" transform="translate(-951.000000, -44.000000)" fill="#566876" fill-rule="nonzero">
            <g id="Header">
                <g id="Navigation" transform="translate(80.000000, 30.000000)">
                    <g id="menu-button-of-three-horizontal-lines" transform="translate(871.000000, 14.000000)">
                        <g id="menu">
                            <path d="M12.6451613,2 L1.35483871,2 C0.609677419,2 0,1.55 0,1 C0,0.45 0.609677419,0 1.35483871,0 L12.6451613,0 L16.6451613,0 C17.3903226,0 18,0.45 18,1 C18,1.55 17.3903226,2 16.6451613,2 L12.6451613,2 Z" id="Combined-Shape"></path>
                            <path d="M12.6451613,7 L1.35483871,7 C0.609677419,7 0,6.55 0,6 C0,5.45 0.609677419,5 1.35483871,5 L12.6451613,5 L16.6451613,5 C17.3903226,5 18,5.45 18,6 C18,6.55 17.3903226,7 16.6451613,7 L12.6451613,7 Z" id="Combined-Shape"></path>
                            <path d="M12.6451613,12 L1.35483871,12 C0.609677419,12 0,11.55 0,11 C0,10.45 0.609677419,10 1.35483871,10 L12.6451613,10 L16.6451613,10 C17.3903226,10 18,10.45 18,11 C18,11.55 17.3903226,12 16.6451613,12 L12.6451613,12 Z" id="Combined-Shape"></path>
                        </g>
                    </g>
                </g>
            </g>
        </g>
    </g>
</svg>