<?xml version="1.0" encoding="UTF-8"?>
<svg width="39px" height="39px" viewBox="0 0 39 39" version="1.1" xmlns="http://www.w3.org/2000/svg" xmlns:xlink="http://www.w3.org/1999/xlink">
    <!-- Generator: sketchtool 50.2 (55047) - http://www.bohemiancoding.com/sketch -->
    <title>338E5A98-BA21-4842-8966-10804A11D373</title>
    <desc>Created with sketchtool.</desc>
    <defs></defs>
    <g id="Page-1" stroke="none" stroke-width="1" fill="none" fill-rule="evenodd">
        <g id="Cart-Page" transform="translate(-897.000000, -497.000000)">
            <g id="Content">
                <g id="cart" transform="translate(80.000000, 341.000000)">
                    <g id="1" transform="translate(40.000000, 122.000000)">
                        <g id="amount" transform="translate(769.000000, 26.000000)">
                            <rect id="Rectangle-2-Copy" stroke="#D2DCE7" x="0.5" y="0.5" width="237" height="54" rx="27"></rect>
                            <g id="minus" transform="translate(8.000000, 8.000000)" fill="#566876" fill-rule="nonzero">
                                <path d="M19.5,0 C30.252,0 39,8.74725 39,19.5 C39,30.25275 30.252,39 19.5,39 C8.748,39 0,30.25275 0,19.5 C0,8.74725 8.748,0 19.5,0 Z M28.875,21 C29.703,21 30.375,20.328 30.375,19.5 C30.375,18.672 29.703,18 28.875,18 L21,18 L18,18 L10.125,18 C9.297,18 8.625,18.672 8.625,19.5 C8.625,20.328 9.297,21 10.125,21 L18,21 L21,21 L28.875,21 Z" id="Shape"></path>
                            </g>
                        </g>
                    </g>
                </g>
            </g>
        </g>
    </g>
</svg>