<?xml version="1.0" encoding="UTF-8"?>
<svg width="14px" height="15px" viewBox="0 0 14 15" version="1.1" xmlns="http://www.w3.org/2000/svg" xmlns:xlink="http://www.w3.org/1999/xlink">
    <!-- Generator: sketchtool 50.2 (55047) - http://www.bohemiancoding.com/sketch -->
    <title>CD85F105-E791-4BB8-BC9D-443475633681</title>
    <desc>Created with sketchtool.</desc>
    <defs></defs>
    <g id="Page-1" stroke="none" stroke-width="1" fill="none" fill-rule="evenodd">
        <g id="My-Wallet" transform="translate(-230.000000, -770.000000)" fill="#566876" fill-rule="nonzero">
            <g id="Content">
                <g id="Tabs" transform="translate(80.000000, 189.000000)">
                    <g id="Prize-Claim" transform="translate(0.000000, 558.000000)">
                        <g id="txt-" transform="translate(150.000000, 19.000000)">
                            <g id="package" transform="translate(0.000000, 4.000000)">
                                <path d="M13.9935809,3.53630224 C13.9935809,3.47931617 13.9807428,3.4223301 13.9550665,3.36850992 C13.9037139,3.26086957 13.8042182,3.18805403 13.695094,3.16589278 L7.15726731,0.0379907134 C7.05135259,-0.0126635711 6.92618065,-0.0126635711 6.82026593,0.0379907134 L0.21824851,3.19438582 C0.0898670335,3.25453778 0.00641907382,3.38117349 0,3.52363867 L0,3.52680456 C0,3.52997045 0,3.53313634 0,3.53946813 L0,11.4605319 C0,11.6061629 0.0834479597,11.7391304 0.21824851,11.8024483 L6.82026593,14.9588434 C6.82347547,14.9588434 6.82347547,14.9588434 6.82668501,14.9620093 C6.83631362,14.9651752 6.84594223,14.9683411 6.85557084,14.9746729 C6.85878038,14.9746729 6.86198991,14.9778388 6.86840899,14.9778388 C6.8780376,14.9810046 6.88766621,14.9841705 6.89729482,14.9873364 C6.90050436,14.9873364 6.90371389,14.9905023 6.90692343,14.9905023 C6.91655204,14.9936682 6.92939019,14.9936682 6.9390188,14.9968341 C6.94222834,14.9968341 6.94543787,14.9968341 6.94864741,14.9968341 C6.96148556,14.9968341 6.97753324,15 6.99037139,15 C7.00320954,15 7.01925722,15 7.03209537,14.9968341 C7.03530491,14.9968341 7.03851444,14.9968341 7.04172398,14.9968341 C7.05135259,14.9968341 7.06419074,14.9936682 7.07381935,14.9905023 C7.07702889,14.9905023 7.08023842,14.9873364 7.08344796,14.9873364 C7.09307657,14.9841705 7.10270518,14.9810046 7.11233379,14.9778388 C7.11554333,14.9778388 7.11875287,14.9746729 7.12517194,14.9746729 C7.13480055,14.971507 7.14442916,14.9683411 7.15405777,14.9620093 C7.15726731,14.9620093 7.15726731,14.9620093 7.16047685,14.9588434 L13.7817515,11.7929506 C13.9133425,11.7296328 14,11.5966653 14,11.4510342 L14,3.54579992 C13.9935809,3.54263402 13.9935809,3.53946813 13.9935809,3.53630224 Z M6.98716185,0.800970874 L12.7129757,3.53946813 L10.6043099,4.54938793 L4.8784961,1.81089067 L6.98716185,0.800970874 Z M6.98716185,6.27796539 L1.26134801,3.53946813 L3.99587345,2.23195441 L9.7216873,4.97045167 L6.98716185,6.27796539 Z M0.770288858,4.15048544 L6.60201742,6.93963698 L6.60201742,14.0090756 L0.770288858,11.219924 L0.770288858,4.15048544 Z M7.37230628,14.0090756 L7.37230628,6.93963698 L10.1100413,5.62895737 L10.1100413,7.47783875 C10.1100413,7.68678767 10.2833563,7.85774588 10.4951857,7.85774588 C10.7070151,7.85774588 10.8803301,7.68678767 10.8803301,7.47783875 L10.8803301,5.25854791 L13.2232921,4.13782187 L13.2232921,11.2072604 L7.37230628,14.0090756 Z" id="Shape"></path>
                            </g>
                        </g>
                    </g>
                </g>
            </g>
        </g>
    </g>
</svg>