<?xml version="1.0" encoding="UTF-8"?>
<svg width="19px" height="23px" viewBox="0 0 19 23" version="1.1" xmlns="http://www.w3.org/2000/svg" xmlns:xlink="http://www.w3.org/1999/xlink">
    <!-- Generator: sketchtool 50.2 (55047) - http://www.bohemiancoding.com/sketch -->
    <title>A0A404EC-1B98-4AF8-881E-B2A2DA790227</title>
    <desc>Created with sketchtool.</desc>
    <defs></defs>
    <g id="Page-1" stroke="none" stroke-width="1" fill="none" fill-rule="evenodd">
        <g id="-Prize-Claim-2" transform="translate(-1552.000000, -685.000000)" fill="#C49F56" fill-rule="nonzero">
            <g id="Group-5" transform="translate(1552.000000, 681.000000)">
                <g id="quality" transform="translate(0.000000, 4.000000)">
                    <path d="M18.789277,8.13558183 L16.9510214,6.32777288 L17.3213103,3.83775753 C17.3779627,3.45691599 17.1069904,3.1019329 16.708725,3.03557558 L14.1051124,2.60130595 L12.8657536,0.378906407 C12.6763127,0.0392292209 12.2375813,-0.0963374366 11.8746862,0.0725980125 L9.50028101,1.17690537 L7.12527633,0.0725980125 C6.76208146,-0.0963374366 6.32374972,0.0393242887 6.13420896,0.379096543 L4.89534976,2.60130595 L2.29143739,3.03557558 C1.8932719,3.1019329 1.62219964,3.45691599 1.67885204,3.83775753 L2.04904104,6.32777288 L0.210785414,8.13558183 C-0.0702784552,8.41203894 -0.0702784552,8.85068169 0.21088533,9.1271388 L2.04904104,10.9347576 L1.67885204,13.4261039 C1.62229956,13.8068504 1.8932719,14.1618335 2.29143739,14.2281908 L4.3753866,14.5757586 L4.3753866,22.2869916 C4.3753866,22.5340728 4.50987361,22.7635664 4.73078802,22.893429 C4.85108695,22.9642545 4.98777212,23 5.12475703,23 C5.23926083,23 5.35406438,22.9750922 5.45987549,22.9247063 L9.50038093,21.0031963 L13.5402869,22.9247063 C13.7724918,23.0351751 14.0484599,23.0233867 14.2693743,22.893429 C14.4902888,22.7634714 14.6247758,22.5339777 14.6247758,22.2868966 L14.6247758,14.5758537 L16.7088249,14.2280957 C17.1069904,14.1616433 17.3779627,13.8067553 17.3214102,13.4259138 L16.9511213,10.9345675 L18.789277,9.12704373 C19.070241,8.85077676 19.070241,8.41203894 18.789277,8.13558183 Z M9.83539947,19.5682432 C9.62457659,19.4679467 9.37628519,19.4678516 9.16526247,19.5682432 L5.87412746,21.1334392 L5.87412746,16.4176018 L6.13430887,16.8842896 C6.32374972,17.2241569 6.76258104,17.3596285 7.12547616,17.190598 L9.50038093,16.0855301 L11.8745863,17.190598 C11.9804973,17.2398431 12.092803,17.2632297 12.20341,17.2632297 C12.4721842,17.2632297 12.7315663,17.1250012 12.8658535,16.8843846 L13.1260349,16.4180772 L13.1260349,21.1334392 L9.83539947,19.5682432 Z M15.6191404,10.1936092 C15.4583754,10.3517069 15.3833385,10.5715036 15.4157113,10.7893039 L15.7357424,12.9426842 L13.4855329,13.3181069 C13.2579241,13.356039 13.0613892,13.4918908 12.9529803,13.6861143 L11.8817802,15.6064835 L9.82960434,14.6513375 C9.72569164,14.6030431 9.61298633,14.5788008 9.50028101,14.5788008 C9.3875757,14.5788008 9.27487039,14.602948 9.17105761,14.6513375 L7.11838212,15.6064835 L6.04758174,13.6862094 C5.93927273,13.4918908 5.74273785,13.356039 5.51502915,13.3181069 L3.26432004,12.9426842 L3.58425126,10.7892088 C3.61662406,10.5715036 3.5415871,10.3516118 3.38082217,10.1936092 L1.79205694,8.63126525 L3.38092208,7.06873118 C3.5415871,6.91063346 3.61662406,6.69083674 3.58425126,6.47313152 L3.26432004,4.32108214 L5.51502915,3.94565946 C5.74273785,3.90772742 5.93927273,3.77178049 6.04768165,3.57746194 L7.11848204,1.6566174 L9.17125744,2.61109794 C9.37888301,2.7076868 9.62177894,2.7076868 9.82940451,2.61109794 L11.8815804,1.6566174 L12.9529803,3.57755701 C13.0612893,3.77178049 13.2578242,3.90763235 13.4855329,3.94565946 L15.7357424,4.32098707 L15.4157113,6.47303646 C15.3833385,6.69083674 15.4583754,6.91063346 15.6190405,7.06873118 L17.2079056,8.63126525 L15.6191404,10.1936092 Z" id="Shape"></path>
                    <path d="M9.50030708,4 C7.01883426,4 5,6.01844396 5,8.49951745 C5,10.9811174 7.01883426,13 9.50030708,13 C11.9814289,13 14,10.9811174 14,8.49951745 C14,6.01844396 11.9814289,4 9.50030708,4 Z M9.50030708,11.6839668 C7.74450911,11.6839668 6.31605884,10.2554567 6.31605884,8.49951745 C6.31605884,6.74410466 7.74450911,5.31603318 9.50030708,5.31603318 C11.2557541,5.31603318 12.6839412,6.74410466 12.6839412,8.49951745 C12.6839412,10.2554567 11.2557541,11.6839668 9.50030708,11.6839668 Z" id="Shape"></path>
                </g>
            </g>
        </g>
    </g>
</svg>