<?xml version="1.0" encoding="UTF-8"?>
<svg width="13px" height="11px" viewBox="0 0 13 11" version="1.1" xmlns="http://www.w3.org/2000/svg" xmlns:xlink="http://www.w3.org/1999/xlink">
    <!-- Generator: sketchtool 50.2 (55047) - http://www.bohemiancoding.com/sketch -->
    <title>B041ABC0-C51A-47C5-A3E7-884B16C1FA11</title>
    <desc>Created with sketchtool.</desc>
    <defs></defs>
    <g id="Page-1" stroke="none" stroke-width="1" fill="none" fill-rule="evenodd">
        <g id="Contact-Us-2" transform="translate(-979.000000, -798.000000)">
            <g id="Group-4" transform="translate(832.000000, 776.000000)">
                <g id="btn">
                    <g id="Group-7" stroke="#C49F56" stroke-width="2">
                        <rect id="Rectangle-2" x="1" y="1" width="255" height="53" rx="26.5"></rect>
                    </g>
                    <g id="txt" transform="translate(89.000000, 16.000000)"></g>
                </g>
                <g id="right-arrow-(2)" transform="translate(147.000000, 22.000000)" fill="#C49F56" fill-rule="nonzero">
                    <path d="M12.7922103,4.98626964 L8.09745274,0.21112501 C7.9634376,0.0748182316 7.7848212,0 7.59436751,0 C7.40370243,0 7.22519173,0.074925729 7.09117658,0.21112501 L6.66492811,0.64476976 C6.53101866,0.780861543 6.45724692,0.962639747 6.45724692,1.15645767 C6.45724692,1.35016809 6.53101866,1.53807365 6.66492811,1.67416543 L9.4037833,4.46598194 L0.702311211,4.46598194 C0.309989283,4.46598194 0,4.77836956 0,5.17750762 L0,5.79056563 C0,6.1897037 0.309989283,6.53358807 0.702311211,6.53358807 L9.43485621,6.53358807 L6.6650338,9.34099171 C6.53112435,9.47729849 6.45735261,9.65413181 6.45735261,9.84794973 C6.45735261,10.0415527 6.53112435,10.2209659 6.6650338,10.3571652 L7.09128227,10.7894125 C7.22529742,10.9257193 7.40380812,11 7.5944732,11 C7.78492689,11 7.96354329,10.9247518 8.09755843,10.788445 L12.792316,6.01340786 C12.9266482,5.8766711 13.0005256,5.69414041 12.9999972,5.5001075 C13.0004199,5.3054296 12.9266482,5.12279142 12.7922103,4.98626964 Z" id="Shape"></path>
                </g>
            </g>
        </g>
    </g>
</svg>