<?xml version="1.0" encoding="UTF-8"?>
<svg width="20px" height="18px" viewBox="0 0 20 18" version="1.1" xmlns="http://www.w3.org/2000/svg" xmlns:xlink="http://www.w3.org/1999/xlink">
    <!-- Generator: sketchtool 50.2 (55047) - http://www.bohemiancoding.com/sketch -->
    <title>183781F6-F203-401A-B9A9-700318D3CD14</title>
    <desc>Created with sketchtool.</desc>
    <defs>
        <linearGradient x1="96.5429553%" y1="3.45704466%" x2="5.56256996%" y2="94.43743%" id="linearGradient-1">
            <stop stop-color="#E3A720" offset="0%"></stop>
            <stop stop-color="#FFE774" offset="53.1453215%"></stop>
            <stop stop-color="#E3A720" offset="100%"></stop>
        </linearGradient>
    </defs>
    <g id="Page-1" stroke="none" stroke-width="1" fill="none" fill-rule="evenodd">
        <g id="Homepage" transform="translate(-1597.000000, -41.000000)" fill="#566876" fill-rule="nonzero">
            <g id="Header">
                <g id="Navigation" transform="translate(80.000000, 30.000000)">
                    <g id="Shopping" transform="translate(1517.000000, 11.000000)">
                        <g id="Shoping">
                            <path d="M9.65801777,16.3306147 C9.65801777,17.2486427 8.91462366,17.992858 7.99758766,17.992858 C7.08055166,17.992858 6.3371669,17.2486427 6.3371669,16.3306147 C6.3371669,15.4125866 7.08056101,14.6683713 7.99759701,14.6683713 C8.91463301,14.6683713 9.65801777,15.4125866 9.65801777,16.3306147 Z M14.7207761,14.6683807 C13.8037494,14.6683807 13.060346,15.4125959 13.060346,16.330624 C13.060346,17.2486521 13.8037494,17.9928674 14.7207761,17.9928674 C15.6378027,17.9928674 16.3812062,17.2486521 16.3812062,16.330624 C16.3811968,15.4125866 15.6378027,14.6683807 14.7207761,14.6683807 Z M19.8748855,6.86511388 L17.8317625,12.9443401 C17.8317625,12.9443401 17.6626367,13.8465211 16.800935,13.8465211 C15.9392333,13.8465211 7.51241702,13.8465211 6.48406732,13.8465211 C5.45571763,13.8465211 5.41250117,12.7157036 5.41250117,12.7157036 C5.41250117,12.7157036 4.31625994,4.57382527 4.26193548,4.08194696 C4.20761103,3.59006864 3.57925199,3.22549142 3.57925199,3.22549142 L0.875652174,1.96120437 C-0.604534829,1.18631513 0.0682748953,-0.288074883 0.875652174,0.0505553822 C4.30390837,1.6695351 5.89643759,2.46667395 5.99890603,3.10437754 C6.1026087,3.74331669 6.28284245,5.28197504 6.28284245,5.28197504 L6.28284245,5.29185959 C6.30383357,5.28568175 6.31864423,5.28197504 6.31864423,5.28197504 C6.31864423,5.28197504 16.8317999,5.28197504 18.9551753,5.28197504 C20.4810379,5.28197504 19.8748855,6.86759438 19.8748855,6.86511388 Z M16.9194483,10.2501529 L16.8984572,10.2513885 L6.89640019,10.2513885 L7.10256195,11.8876755 L16.4330528,11.8876755 L16.9194483,10.2501529 Z M17.8934829,6.95039626 L6.4828331,6.95039626 L6.70258065,8.69914821 C8.89137915,8.69914821 15.3010005,8.69914821 17.3774568,8.69914821 L17.8934829,6.95039626 Z" id="Shape"></path>
                        </g>
                    </g>
                </g>
            </g>
        </g>
    </g>
</svg>