<?xml version="1.0" encoding="UTF-8"?>
<svg width="15px" height="15px" viewBox="0 0 15 15" version="1.1" xmlns="http://www.w3.org/2000/svg" xmlns:xlink="http://www.w3.org/1999/xlink">
    <!-- Generator: sketchtool 50.2 (55047) - http://www.bohemiancoding.com/sketch -->
    <title>604BA15B-7AC7-466A-B8F1-2051CAF867E8</title>
    <desc>Created with sketchtool.</desc>
    <defs></defs>
    <g id="Page-1" stroke="none" stroke-width="1" fill="none" fill-rule="evenodd" opacity="0.7">
        <g id="Winners" transform="translate(-530.000000, -609.000000)" fill="#566876" fill-rule="nonzero">
            <g id="Content">
                <g id="1" transform="translate(80.000000, 370.000000)">
                    <g id="text" transform="translate(450.000000, 106.000000)">
                        <g id="Subscribed:" transform="translate(0.000000, 131.000000)">
                            <g id="star-(2)" transform="translate(0.000000, 2.000000)">
                                <g id="icon">
                                    <path d="M14.964,5.6803481 C14.8838182,5.42254747 14.6704545,5.23466772 14.4135909,5.19574367 L10.0580455,4.53488924 L8.11013636,0.412879747 C7.99531818,0.169841772 7.75827273,0.0159493671 7.49872727,0.0159493671 C7.23918182,0.0159493671 7.00213636,0.169841772 6.88731818,0.412879747 L4.93954545,4.53484177 L0.583863636,5.1956962 C0.327045455,5.23466772 0.113636364,5.42254747 0.0334545455,5.68030063 C-0.0467272727,5.93810127 0.0201363636,6.22106013 0.206,6.41022152 L3.35772727,9.61822785 L2.61345455,14.1488924 C2.56959091,14.4160443 2.67472727,14.6859968 2.88468182,14.8453006 C3.09463636,15.0046519 3.373,15.0256329 3.60272727,14.8995095 L7.49868182,12.7606329 L11.3946818,14.8995095 C11.4944091,14.954288 11.6033636,14.9812975 11.7118636,14.9812975 C11.7128182,14.9812975 11.7138182,14.9812975 11.7147727,14.9812975 C12.0905,14.9802057 12.3946364,14.6618354 12.3946364,14.2692722 C12.3946364,14.2145886 12.3887273,14.1613291 12.3775909,14.1101582 L11.6396364,9.61822785 L14.7914545,6.41022152 C14.9773182,6.22106013 15.0441818,5.93810127 14.964,5.6803481 Z M10.4311364,8.85977848 C10.2704091,9.02335443 10.1970909,9.25908228 10.2350455,9.49006329 L10.8063636,12.9676899 L7.81595455,11.3259968 C7.61736364,11.2169146 7.38009091,11.2169146 7.18140909,11.3259968 L4.191,12.9676899 L4.76227273,9.49001582 C4.80022727,9.25903481 4.72686364,9.02335443 4.56618182,8.85973101 L2.14713636,6.3975 L5.49031818,5.89030063 C5.71240909,5.8565981 5.90440909,5.71091772 6.00368182,5.50072785 L7.49868182,2.33691456 L8.99377273,5.50072785 C9.09304545,5.71087025 9.28504545,5.85655063 9.50718182,5.89025316 L12.8501818,6.39745253 L10.4311364,8.85977848 Z" id="XMLID_10_"></path>
                                </g>
                            </g>
                        </g>
                    </g>
                </g>
            </g>
        </g>
    </g>
</svg>