<?xml version="1.0" encoding="UTF-8"?>
<svg width="14px" height="14px" viewBox="0 0 14 14" version="1.1" xmlns="http://www.w3.org/2000/svg" xmlns:xlink="http://www.w3.org/1999/xlink">
    <!-- Generator: sketchtool 50.2 (55047) - http://www.bohemiancoding.com/sketch -->
    <title>B80EF4C0-72FA-4A45-92B3-82198CF51E5F</title>
    <desc>Created with sketchtool.</desc>
    <defs></defs>
    <g id="Page-1" stroke="none" stroke-width="1" fill="none" fill-rule="evenodd" opacity="0.7">
        <g id="Homepage" transform="translate(-685.000000, -3525.000000)" fill="#566876" fill-rule="nonzero">
            <g id="Latest-Winners" transform="translate(0.000000, 2727.000000)">
                <g id="2" transform="translate(530.000000, 301.000000)">
                    <g id="Draw-Time:" transform="translate(120.000000, 495.000000)">
                        <g id="clock-circular-outline" transform="translate(35.000000, 2.000000)">
                            <g id="icon">
                                <path d="M6.94,0 C3.11328571,0 0,3.11328571 0,6.94 C0,10.7667143 3.11328571,13.88 6.94,13.88 C10.7667143,13.88 13.88,10.7667143 13.88,6.94 C13.88,3.11328571 10.7667143,0 6.94,0 Z M6.94,12.4032857 C3.92757143,12.4032857 1.47657143,9.95257143 1.47657143,6.94 C1.47657143,3.92742857 3.92757143,1.47671429 6.94,1.47671429 C9.95242857,1.47671429 12.4034286,3.92742857 12.4034286,6.94 C12.4034286,9.95257143 9.95242857,12.4032857 6.94,12.4032857 Z" id="Shape"></path>
                                <path d="M10.5568571,6.72571429 L7.438,6.72571429 L7.438,2.97571429 C7.438,2.66014286 7.18214286,2.40428571 6.86657143,2.40428571 C6.551,2.40428571 6.29514286,2.66014286 6.29514286,2.97571429 L6.29514286,7.29714286 C6.29514286,7.61271429 6.551,7.86857143 6.86657143,7.86857143 L10.5568571,7.86857143 C10.8724286,7.86857143 11.1282857,7.61271429 11.1282857,7.29714286 C11.1282857,6.98157143 10.8724286,6.72571429 10.5568571,6.72571429 Z" id="Shape"></path>
                            </g>
                        </g>
                    </g>
                </g>
            </g>
        </g>
    </g>
</svg>