<?xml version="1.0" encoding="UTF-8"?>
<svg width="18px" height="18px" viewBox="0 0 18 18" version="1.1" xmlns="http://www.w3.org/2000/svg" xmlns:xlink="http://www.w3.org/1999/xlink">
    <!-- Generator: sketchtool 50.2 (55047) - http://www.bohemiancoding.com/sketch -->
    <title>2E7F4046-C4E0-4165-B245-88CE3C76FB00</title>
    <desc>Created with sketchtool.</desc>
    <defs></defs>
    <g id="Page-1" stroke="none" stroke-width="1" fill="none" fill-rule="evenodd" opacity="0.7">
        <g id="Homepage" transform="translate(-891.000000, -5006.000000)" fill="#566876" fill-rule="nonzero">
            <g id="Footer" transform="translate(0.000000, 4654.000000)">
                <g id="Social" transform="translate(830.000000, 352.000000)">
                    <g id="twitter-logo-button" transform="translate(61.000000, 0.000000)">
                        <path d="M8.93736,0 C4.00932,0 0,4.00932 0,8.93736 C0,13.86504 4.00932,17.87472 8.93736,17.87472 C13.86504,17.87472 17.87472,13.86504 17.87472,8.93736 C17.87472,4.00932 13.86576,0 8.93736,0 Z M12.92436,6.89184 C12.92832,6.9804 12.93048,7.06968 12.93048,7.15896 C12.93048,9.87732 10.86192,13.01076 7.07724,13.01076 C5.91552,13.01076 4.83408,12.67128 3.924,12.08736 C4.08492,12.10644 4.24872,12.11616 4.41468,12.11616 C5.37876,12.11616 6.26544,11.78712 6.9696,11.2356 C6.0696,11.21904 5.30964,10.62432 5.04792,9.80676 C5.1732,9.83052 5.30244,9.84384 5.43456,9.84384 C5.62212,9.84384 5.80428,9.81936 5.97672,9.7722 C5.03568,9.58356 4.32684,8.75232 4.32684,7.75512 C4.32684,7.74648 4.32684,7.73748 4.3272,7.7292 C4.6044,7.88292 4.92156,7.9758 5.25852,7.98624 C4.707,7.61796 4.34376,6.98796 4.34376,6.27444 C4.34376,5.89716 4.44492,5.54364 4.62204,5.2398 C5.63616,6.48468 7.15248,7.30332 8.86176,7.38972 C8.82648,7.23888 8.80884,7.08228 8.80884,6.92064 C8.80884,5.78484 9.72972,4.8636 10.86552,4.8636 C11.45736,4.8636 11.99124,5.11344 12.36708,5.51304 C12.83616,5.42088 13.27536,5.25024 13.67388,5.01372 C13.51908,5.49432 13.194,5.89716 12.76812,6.15204 C13.18464,6.10236 13.58208,5.9922 13.94964,5.8284 C13.67532,6.24024 13.32648,6.60276 12.92436,6.89184 Z" id="Shape"></path>
                    </g>
                </g>
            </g>
        </g>
    </g>
</svg>