<?xml version="1.0" encoding="UTF-8"?>
<svg width="12px" height="15px" viewBox="0 0 12 15" version="1.1" xmlns="http://www.w3.org/2000/svg" xmlns:xlink="http://www.w3.org/1999/xlink">
    <!-- Generator: sketchtool 50.2 (55047) - http://www.bohemiancoding.com/sketch -->
    <title>6AA298F9-7031-4741-90BD-99549FF54ED9</title>
    <desc>Created with sketchtool.</desc>
    <defs></defs>
    <g id="Page-1" stroke="none" stroke-width="1" fill="none" fill-rule="evenodd">
        <g id="My-Wallet" transform="translate(-235.000000, -589.000000)" fill="#566876" fill-rule="nonzero">
            <g id="Content">
                <g id="Tabs" transform="translate(80.000000, 189.000000)">
                    <g id="My-Profile" transform="translate(0.000000, 378.000000)">
                        <g id="txt" transform="translate(155.000000, 20.000000)">
                            <g id="user-(2)" transform="translate(0.000000, 2.000000)">
                                <path d="M5.9939759,6.77115987 C7.98698795,6.77115987 9.60843373,5.25238871 9.60843373,3.38557994 C9.60843373,1.51877116 7.98698795,0 5.9939759,0 C4.00096386,0 2.37951807,1.51877116 2.37951807,3.38557994 C2.37951807,5.25238871 4.00096386,6.77115987 5.9939759,6.77115987 Z M5.9939759,1.35423197 C7.18978313,1.35423197 8.1626506,2.26549467 8.1626506,3.38557994 C8.1626506,4.5056652 7.18978313,5.4169279 5.9939759,5.4169279 C4.79816867,5.4169279 3.8253012,4.5056652 3.8253012,3.38557994 C3.8253012,2.26549467 4.79816867,1.35423197 5.9939759,1.35423197 Z" id="Shape"></path>
                                <path d="M5.9939759,8.12539185 C2.70549398,8.12539185 0.0301204819,10.631353 0.0301204819,13.7115987 L0.0301204819,14.3887147 L11.9578313,14.3887147 L11.9578313,13.7115987 C11.9578313,10.631353 9.28245783,8.12539185 5.9939759,8.12539185 Z M1.53368675,13.0344828 C1.88077108,11.0217329 3.74872289,9.47962382 5.9939759,9.47962382 C8.23922892,9.47962382 10.1072289,11.0217329 10.4542651,13.0344828 L1.53368675,13.0344828 Z" id="Shape"></path>
                            </g>
                        </g>
                    </g>
                </g>
            </g>
        </g>
    </g>
</svg>