<?xml version="1.0" encoding="UTF-8"?>
<svg width="15px" height="18px" viewBox="0 0 15 18" version="1.1" xmlns="http://www.w3.org/2000/svg" xmlns:xlink="http://www.w3.org/1999/xlink">
    <!-- Generator: sketchtool 50.2 (55047) - http://www.bohemiancoding.com/sketch -->
    <title>27770025-61B6-478A-BD74-C0A5E6BD1F58</title>
    <desc>Created with sketchtool.</desc>
    <defs></defs>
    <g id="Page-1" stroke="none" stroke-width="1" fill="none" fill-rule="evenodd">
        <g id="Winners" transform="translate(-1755.000000, -41.000000)" fill="#566876" fill-rule="nonzero">
            <g id="Header" transform="translate(80.000000, 30.000000)">
                <g id="user-(2)" transform="translate(1675.000000, 11.000000)">
                    <g id="icon">
                        <path d="M7.49246988,8.46394984 C9.98373494,8.46394984 12.0105422,6.56548589 12.0105422,4.23197492 C12.0105422,1.89846395 9.98373494,0 7.49246988,0 C5.00120482,0 2.97439759,1.89846395 2.97439759,4.23197492 C2.97439759,6.56548589 5.00120482,8.46394984 7.49246988,8.46394984 Z M7.49246988,1.69278997 C8.98722892,1.69278997 10.2033133,2.83186834 10.2033133,4.23197492 C10.2033133,5.6320815 8.98722892,6.77115987 7.49246988,6.77115987 C5.99771084,6.77115987 4.78162651,5.6320815 4.78162651,4.23197492 C4.78162651,2.83186834 5.99771084,1.69278997 7.49246988,1.69278997 Z" id="Shape"></path>
                        <path d="M7.49246988,10.1567398 C3.38186747,10.1567398 0.0376506024,13.2891912 0.0376506024,17.1394984 L0.0376506024,17.9858934 L14.9472892,17.9858934 L14.9472892,17.1394984 C14.9472892,13.2891912 11.6030723,10.1567398 7.49246988,10.1567398 Z M1.91710843,16.2931034 C2.35096386,13.7771661 4.68590361,11.8495298 7.49246988,11.8495298 C10.2990361,11.8495298 12.6340361,13.7771661 13.0678313,16.2931034 L1.91710843,16.2931034 Z" id="Shape"></path>
                    </g>
                </g>
            </g>
        </g>
    </g>
</svg>