<?xml version="1.0" encoding="UTF-8"?>
<svg width="16px" height="15px" viewBox="0 0 16 15" version="1.1" xmlns="http://www.w3.org/2000/svg" xmlns:xlink="http://www.w3.org/1999/xlink">
    <!-- Generator: sketchtool 50.2 (55047) - http://www.bohemiancoding.com/sketch -->
    <title>96B172E3-ABDF-4D5C-8A20-D0955E5D705F</title>
    <desc>Created with sketchtool.</desc>
    <defs></defs>
    <g id="Page-1" stroke="none" stroke-width="1" fill="none" fill-rule="evenodd">
        <g id="My-Wallet" transform="translate(-233.000000, -649.000000)" fill="#FFFFFF" fill-rule="nonzero">
            <g id="Content">
                <g id="Tabs" transform="translate(80.000000, 189.000000)">
                    <g id="My-Wallet" transform="translate(0.000000, 438.000000)">
                        <g id="txt" transform="translate(153.000000, 20.000000)">
                            <g id="deposit" transform="translate(0.000000, 2.000000)">
                                <path d="M14.9565312,6.52179487 L14.9565312,4.82439103 C14.9565312,3.93919872 14.254375,3.21903846 13.3913125,3.21903846 L11.3722813,3.21903846 L7.9988125,0.143525641 C7.80115625,-0.0366987179 7.50321875,-0.0366987179 7.3055625,0.143525641 L3.9320625,3.21907051 L2.6086875,3.21907051 C1.17025,3.21907051 0,4.41932692 0,5.89464744 L0,12.3160577 C0,13.7913782 1.17025,14.9916346 2.6086875,14.9916346 L13.3912813,14.9916346 C14.2543438,14.9916346 14.9565,14.2714744 14.9565,13.3862821 L14.9565,11.6888782 C15.5637812,11.4679808 15.9999688,10.8731731 15.9999688,10.1755769 L15.9999688,8.03509615 C16,7.3375 15.5637812,6.74269231 14.9565312,6.52179487 Z M7.6521875,1.25942308 L9.80165625,3.21907051 L5.50271875,3.21907051 L7.6521875,1.25942308 Z M13.9130312,13.3862821 C13.9130312,13.6813462 13.6789687,13.9214103 13.3912812,13.9214103 L2.6086875,13.9214103 C1.745625,13.9214103 1.04346875,13.20125 1.04346875,12.3160577 L1.04346875,5.89464744 C1.04346875,5.00945513 1.745625,4.28929487 2.6086875,4.28929487 L13.3912812,4.28929487 C13.6789687,4.28929487 13.9130312,4.52935897 13.9130312,4.82442308 L13.9130312,6.42977564 L12.3478125,6.42977564 C10.909375,6.42977564 9.739125,7.63003205 9.739125,9.10535256 C9.739125,10.5806731 10.909375,11.7809295 12.3478125,11.7809295 L13.9130312,11.7809295 L13.9130312,13.3862821 Z M14.9565312,10.1755769 C14.9565312,10.470641 14.7224687,10.7107051 14.4347812,10.7107051 L12.3478125,10.7107051 C11.48475,10.7107051 10.7825938,9.99054487 10.7825938,9.10535256 C10.7825938,8.22016026 11.48475,7.5 12.3478125,7.5 L14.4347812,7.5 C14.7224687,7.5 14.9565312,7.7400641 14.9565312,8.03512821 L14.9565312,10.1755769 Z" id="Shape"></path>
                                <ellipse id="Oval" cx="12.3478125" cy="9.10535256" rx="1" ry="1"></ellipse>
                            </g>
                        </g>
                    </g>
                </g>
            </g>
        </g>
    </g>
</svg>